<?xml version="1.0" encoding="UTF-8"?>
<svg id="a13b8cba-1f8f-490a-afba-7bfd552ebb8c" width="937.6" height="653.44" data-name="Layer 1" version="1.1" viewBox="0 0 937.6 653.44" xmlns="http://www.w3.org/2000/svg">
 <title>biking</title>
 <g fill="#f2f2f2">
  <polygon transform="matrix(.99274 0 0 .99274 3.4029 2.3716)" points="377.08 451.13 372.98 113.21 195.99 26.994 200.09 364.91"/>
  <polygon transform="matrix(.99274 0 0 .99274 3.4029 2.3716)" points="189.4 358.91 185.31 20.994 142.21 0 9.957 271.5"/>
  <polygon transform="matrix(.99274 0 0 .99274 3.4029 2.3716)" points="584.5 545.34 805.34 652.92 937.6 381.41 580.4 207.42"/>
  <polygon transform="matrix(.99274 0 0 .99274 3.4029 2.3716)" points="570.07 537.34 565.97 199.42 388.98 113.21 393.08 451.13"/>
 </g>
 <g stroke-width=".99274">
  <path d="m450.63 382.54-4.9637 111.19s12.906 105.23 9.9274 108.21c-2.9782 2.9782-10.92 8.9347-4.9637 15.884 5.9564 6.9492 27.797 11.913 28.789 7.9419 0.99275-3.971 2.9782-117.14 2.9782-117.14l6.9492-134.02z" fill="#2f2e41"/>
  <path d="m450.63 382.54-4.9637 111.19s12.906 105.23 9.9274 108.21c-2.9782 2.9782-10.92 8.9347-4.9637 15.884 5.9564 6.9492 27.797 11.913 28.789 7.9419 0.99275-3.971 2.9782-117.14 2.9782-117.14l6.9492-134.02z" opacity=".2"/>
  <path d="m455.6 615.83s-24.819 18.862-27.797 18.862c-2.9782 0-29.782 8.9347-10.92 12.906 18.862 3.971 64.528 1.9855 65.521-3.971 0.99274-5.9564-2.9782-24.033-2.9782-24.033z" fill="#2f2e41"/>
  <path d="m455.6 615.83s-24.819 18.862-27.797 18.862c-2.9782 0-29.782 8.9347-10.92 12.906 18.862 3.971 64.528 1.9855 65.521-3.971 0.99274-5.9564-2.9782-24.033-2.9782-24.033z" opacity=".2"/>
  <path d="m394.05 299.15s-10.92 3.971-10.92 6.9492c0 2.9782-9.9274 40.702-11.913 42.688-1.9855 1.9855-2.9782 10.92-2.9782 10.92s-9.9274 22.833-7.9419 22.833c1.9855 0 18.862-3.971 19.855 0 0.99274 3.971 8.9347-24.819 8.9347-24.819l16.877-33.753z" fill="#449dcf"/>
  <path d="m360.29 386.51s2.9782 21.84 10.92 23.826c7.9419 1.9855 0-27.797 0-27.797z" fill="#ffb8b8"/>
  <path d="m386.1 287.23s5.9565 12.906 8.9347 19.855c2.9782 6.9492 30.775-17.869 30.775-17.869s-14.891-10.92-14.891-15.884c0-4.9637-24.819 13.898-24.819 13.898z" fill="#ffb8b8"/>
  <path d="m99.738 609.93c6.6576 24.611 29.462 39.853 29.462 39.853s12.01-24.66 5.3521-49.271c-6.6577-24.611-29.462-39.853-29.462-39.853s-12.01 24.66-5.3521 49.271z" fill="#3f3d56"/>
  <path d="m109.52 604.64c18.269 17.784 20.5 45.122 20.5 45.122s-27.388-1.4954-45.657-19.279c-18.269-17.784-20.5-45.122-20.5-45.122s27.388 1.4954 45.657 19.279z" fill="#449dcf"/>
 </g>
 <g fill="#2f2e41">
  <g stroke-width=".99274">
   <path d="m336.47 650.58a90.339 90.339 0 1 1 90.339-90.339 90.442 90.442 0 0 1-90.339 90.339zm0-178.69a88.354 88.354 0 1 0 88.354 88.354 88.454 88.454 0 0 0-88.354-88.354z"/>
   <path d="m614.44 650.58a90.339 90.339 0 1 1 90.339-90.339 90.442 90.442 0 0 1-90.339 90.339zm0-178.69a88.354 88.354 0 1 0 88.354 88.354 88.453 88.453 0 0 0-88.354-88.354z"/>
   <circle cx="336.47" cy="560.24" r="5.9564"/>
   <circle cx="616.42" cy="560.24" r="5.9564"/>
  </g>
  <polygon transform="matrix(.99274 0 0 .99274 3.4029 2.3716)" points="394.84 429.93 543.06 432.96 543.34 433.4 616.34 547.4 614.66 548.48 541.94 434.93 396.16 431.96 344.42 553.34 342.58 552.55"/>
  <polygon transform="matrix(.99274 0 0 .99274 3.4029 2.3716)" points="540.46 441.22 502.88 573.76 603.37 560.95 603.63 562.94 500.12 576.13 538.54 440.67"/>
  <rect transform="rotate(-44.449)" x="-43.925" y="602.22" width="1.9854" height="146.02" stroke-width=".99274"/>
  <rect transform="rotate(-74.769)" x="-272.44" y="635.91" width="22.638" height="1.9854" stroke-width=".99274"/>
  <polygon transform="matrix(.99274 0 0 .99274 3.4029 2.3716)" points="401.25 402.94 384.5 402.94 384.5 389.94 386.5 389.94 386.5 400.94 403.75 400.94 398.48 424.17 396.52 423.72"/>
  <path d="m512.18 388.49s0-5.9564 12.906-2.9782 52.615 10.92 55.594 9.9274c2.9782-0.99273 1.9855 5.9565-10.92 8.9347-12.906 2.9782-27.797-3.971-30.775-5.9564-2.9782-1.9855-26.804-9.9274-26.804-9.9274z" stroke-width=".99274"/>
 </g>
 <g stroke-width=".99274">
  <rect x="450.63" y="566.19" width="25.811" height="9.9274" fill="#449dcf"/>
  <path d="m501.26 593a19.855 19.855 0 1 1 19.855-19.855 19.877 19.877 0 0 1-19.855 19.855zm0-37.724a17.869 17.869 0 1 0 17.869 17.869 17.89 17.89 0 0 0-17.869-17.869z" fill="#2f2e41"/>
  <circle cx="395.04" cy="273.33" r="23.826" fill="#ffb8b8"/>
  <path d="m470.49 384.52s-68.499 39.71-67.506 52.615c0.99274 12.906 52.615 83.39 52.615 83.39s3.971 20.848 7.9419 20.848c3.971 0 28.79 8.9347 29.782 2.9782 0.99274-5.9565-7.9419-12.906-6.9492-16.877 0.99275-3.971-43.681-76.441-43.681-76.441s95.608-35.739 75.601-66.514c-20.007-30.775-47.804 0-47.804 0z" fill="#2f2e41"/>
  <path d="m472.47 537.4s-11.913 2.9782-13.898 6.9492c-1.9855 3.971-36.731 16.877-26.804 19.855 9.9274 2.9782 67.506 3.971 69.492 1.9855s0-25.03-7.9419-24.924c-7.9419 0.10552-16.877 3.0838-20.848-3.8654z" fill="#2f2e41"/>
  <path d="m395.04 310.07 22.337-27.3s25.315-7.4456 36.235 7.4456c10.92 14.891 40.702 51.623 50.63 59.564 9.9274 7.9419 23.826 38.717 18.862 39.71-4.9637 0.99275-32.76-10.92-43.681-2.9782-10.92 7.9419-31.768 8.9347-32.76 4.9637-0.99275-3.971-60.557-70.485-60.557-79.419 0-8.9347 6.3472-10.852 6.3472-10.852z" fill="#449dcf"/>
  <rect transform="rotate(19.471)" x="478.67" y="231.07" width="37.724" height="5.9564" rx="2.9782" fill="#2f2e41"/>
  <path d="m339.45 376.58s-34.746 9.9274-31.768 20.848c2.9782 10.92 34.746-12.906 34.746-12.906z" fill="#ffb8b8"/>
  <path d="m429.79 290.21s-13.898 11.913-16.877 25.811c-2.9782 13.898-17.869 38.717-17.869 38.717l-60.557 19.855s-3.971 18.862 1.9855 18.862c5.9565 0 72.47-13.898 74.456-16.877s44.673-59.564 44.673-59.564 3.971-30.775-25.811-26.804z" fill="#449dcf"/>
 </g>
 <g fill="#2f2e41">
  <path d="m380.24 245.76a4.699 4.699 0 0 1-2.0462 1.0268 1.4602 1.4602 0 0 1-1.6921-1.1721 6.067 6.067 0 0 1-2.3218 2.9778c-1.1368 0.59249-2.8946 0.0956-3.0585-1.1758a5.3655 5.3655 0 0 1-1.235 2.6068 1.8496 1.8496 0 0 1-2.6001 0.0869c0.49783 2.7206 0.19061 5.5185 0.3469 8.2799 0.15629 2.7614 0.89269 5.6889 2.979 7.5047 3.0426 2.6481 7.6179 1.9946 11.62 1.4929a3.5272 3.5272 0 0 1 1.821 0.0997c1.4986 0.63846 1.4306 2.7246 1.4508 4.3534a12.096 12.096 0 0 0 10.592 11.487 6.0635 6.0635 0 0 0 4.5066-1.0999c1.1364-0.96318 1.7168-2.5331 3.0189-3.2566 2.1181-1.177 4.687 0.53952 6.2356 2.4032 1.5486 1.8637 3.0749 4.1563 5.4739 4.4974 3.1728 0.4512 5.5894-2.7823 6.775-5.7597a33.576 33.576 0 0 0-0.6673-26.089c-6.6249-14.441-29.256-16.726-41.199-8.2632z" stroke-width=".99274"/>
  <path d="m799.47 650.54-1.7644-0.91133c22.914-44.3 10.661-101.83-3.652-142.29a436.1 436.1 0 0 0-37.007-78.104l1.6782-1.0606a438.33 438.33 0 0 1 37.2 78.501c14.445 40.831 26.785 98.936 3.5454 143.87z" stroke-width=".99274"/>
  <rect transform="rotate(-79.645)" x="-346.44" y="880.19" width="71.656" height="1.9848" stroke-width=".99274"/>
  <rect transform="rotate(-42.94)" x="200.19" y="855.53" width="1.9862" height="97.638" stroke-width=".99274"/>
  <rect transform="rotate(-54.137)" x="-18.975" y="1021.4" width="57.588" height="1.9858" stroke-width=".99274"/>
 </g>
 <g stroke-width=".99274">
  <circle cx="822.41" cy="399.91" r="9.9274" fill="#449dcf"/>
  <circle cx="714.21" cy="476.35" r="9.9274" fill="#3f3d56"/>
  <circle cx="757.89" cy="486.28" r="9.9274" fill="#3f3d56"/>
  <circle cx="738.03" cy="524.99" r="9.9274" fill="#449dcf"/>
 </g>
 <g fill="#3f3d56" stroke-width=".99274">
  <circle cx="862.12" cy="549.81" r="9.9274"/>
  <circle cx="829.36" cy="560.73" r="9.9274"/>
  <circle cx="852.2" cy="592.5" r="9.9274"/>
  <circle cx="747.96" cy="411.82" r="9.9274"/>
 </g>
 <g stroke-width=".99274">
  <rect x="3.4029" y="649.09" width="896.45" height="1.9855" fill="#2f2e41"/>
  <rect transform="rotate(30)" x="260.62" y="305.49" width="97.289" height="97.289" fill="#f2f2f2"/>
  <path d="m110.62 544.71a21.84 21.84 0 1 1 21.84-21.84 21.865 21.865 0 0 1-21.84 21.84zm0-41.695a19.855 19.855 0 1 0 19.855 19.855 19.877 19.877 0 0 0-19.855-19.855z" fill="#3f3d56"/>
 </g>
</svg>
