<?xml version="1.0" encoding="UTF-8"?>
<svg id="a13b8cba-1f8f-490a-afba-7bfd552ebb8c" width="937.6" height="653.44" data-name="Layer 1" version="1.1" viewBox="0 0 937.6 653.44" xmlns="http://www.w3.org/2000/svg">
 <defs>
  <linearGradient id="dff037aa-d578-4bab-81e7-399360663117" x1="597.75" x2="597.75" y1="725.44" y2="347.69" gradientTransform="matrix(.89005 0 0 .89005 -62.658 -75.671)" gradientUnits="userSpaceOnUse">
   <stop stop-color="gray" stop-opacity=".25" offset="0"/>
   <stop stop-color="gray" stop-opacity=".12" offset=".54"/>
   <stop stop-color="gray" stop-opacity=".1" offset="1"/>
  </linearGradient>
 </defs>
 <title>biking</title>
 <path d="m863.72 468.26q-1.5487 3.3377-3.0885 6.5864-2.4031 5.0466-4.744 9.8973c-0.69424 1.433-1.3885 2.8392-2.0649 4.2455-7.6544 15.638-14.802 29.469-20.872 40.844a65.16 65.16 0 0 1-56.794 34.445l-134.98 1.4686h-1.4241l-21.468 0.23141-30.351 0.32932h-1.2283l-15.451 0.16911h-0.47173l-95.235 1.0324-85.008 0.89005-9.8884 0.10681-61.413 0.66753h-0.0713l-39.83 0.42721h-0.42721l-125.94 1.3618-37.676 0.40942a78.387 78.387 0 0 1-23.738-3.4 76.891 76.891 0 0 1-34.792-22.029c-16.181-17.828-27.974-38.628-35.896-61.2q-1.7178-4.8864-3.2042-9.8973c-27.422-92.698 6.0078-212.29 66.175-292.33q3.7827-5.0199 7.69-9.7905l0.06229-0.0713c18.504-22.714 39.251-41.69 61.351-55.183 39.162-23.951 82.552-30.698 125.23-10.592 36.109 17.018 69.824 25.019 102.51 27.191 3.3021 0.21362 6.6042 0.37382 9.8884 0.47172 74.969 2.3586 145.23-24.654 227.74-42.09 3.2843-0.69424 6.5775-1.3796 9.8973-2.0293 58.859-11.713 124.15-17.89 201.8-4.9042a168.3 168.3 0 0 1 23.818 5.6963q5.1356 1.6555 9.8973 3.5602c37.062 15.077 57.275 42.936 65.864 77.844q1.2194 4.8596 2.1094 9.8884c15.229 83.967-29.372 203.07-67.973 285.75z" fill="#449dcf" opacity=".1" stroke-width=".89005"/>
 <g transform="matrix(.89005 0 0 .89005 7.9582 78.227)" fill="#449dcf" opacity=".1">
  <path transform="translate(-79.34,-172.91)" d="m242.24 217v509.62l-42.33 0.46a88.07 88.07 0 0 1-26.67-3.82v-444.26h0.07c20.79-25.55 44.1-46.87 68.93-62z"/>
  <path transform="translate(-79.34,-172.91)" d="m1117.2 290.08h-952.64q4.25-5.64 8.64-11v-0.08h941.63q1.37 5.43 2.37 11.08z"/>
  <path transform="translate(-79.34,-172.91)" d="m1040.8 191.51v427h-3.47q-2.7 5.67-5.33 11.12c-0.78 1.61-1.56 3.19-2.32 4.77v-446.93q5.77 1.86 11.12 4.04z"/>
  <path transform="translate(-79.34,-172.91)" d="m776.21 186.58v534.25l-11.12 0.12v-532.09c3.69-0.78 7.39-1.55 11.12-2.28z"/>
  <path transform="translate(-79.34,-172.91)" d="m509.22 236.15v487.58l-11.11 0.12v-488.23c3.71 0.24 7.42 0.38 11.11 0.53z"/>
  <path transform="translate(-79.34,-172.91)" d="m1037.4 618.52q-2.7 5.67-5.33 11.12h-938.17q-1.93-5.49-3.6-11.12z"/>
 </g>
 <rect x="196.29" y="314.83" width="16.911" height="51.32" fill="#3f3d56" stroke-width=".89005"/>
 <rect x="651.4" y="312.16" width="16.911" height="54.293" fill="#3f3d56" stroke-width=".89005"/>
 <polygon transform="matrix(.89005 0 0 .89005 7.9582 78.227)" points="636.1 506.6 641.28 506.55 678.93 506.24 680.93 506.21 682.78 506.19 683.74 506.19 695.45 506.1 697.77 506.07 700.88 506.05 710.63 505.96 726.1 505.83 728.1 505.81 731.58 505.79 732.23 505.79 806.94 505.15 863.1 533.65 863.1 546.65 711.18 548.05 709.56 548.08 651.82 548.61 650.44 548.63 632.89 548.78 632.37 548.78 525.39 549.77 349.78 551.4 349.63 551.4 304.98 551.82 304.5 551.83 106.1 553.65 106.1 538.65 152.75 510.65 246.35 509.87 248.35 509.86 249.01 509.85 251.01 509.82 295.95 509.45 297.96 509.44 298.6 509.43 300.6 509.42 315.01 509.3 315.39 509.29 350.94 508.99 351.23 508.99 628.63 506.65 635.42 506.6" fill="#65617d"/>
 <polygon transform="matrix(.89005 0 0 .89005 7.9582 78.227)" points="636.1 506.6 641.28 506.55 678.93 506.24 680.93 506.21 682.78 506.19 683.74 506.19 695.45 506.1 697.77 506.07 700.88 506.05 710.63 505.96 726.1 505.83 728.1 505.81 731.58 505.79 732.23 505.79 806.94 505.15 863.1 533.65 863.1 546.65 711.18 548.05 709.56 548.08 651.82 548.61 650.44 548.63 632.89 548.78 632.37 548.78 525.39 549.77 349.78 551.4 349.63 551.4 304.98 551.82 304.5 551.83 106.1 553.65 106.1 538.65 152.75 510.65 246.35 509.87 248.35 509.86 249.01 509.85 251.01 509.82 295.95 509.45 297.96 509.44 298.6 509.43 300.6 509.42 315.01 509.3 315.39 509.29 350.94 508.99 351.23 508.99 628.63 506.65 635.42 506.6" opacity=".2"/>
 <g stroke-width=".89005">
  <path d="m271.5 508.71v21.797a5.456 5.456 0 0 1-3.1152 4.9309 5.3403 5.3403 0 0 1-2.2251 0.534l-31.063 0.65865a5.3403 5.3403 0 0 1-2.4031-0.50733 5.4471 5.4471 0 0 1-3.1775-4.9576v-22.456z" fill="#3f3d56"/>
  <path d="m271.5 508.71v21.797a5.456 5.456 0 0 1-3.1152 4.9309 5.3403 5.3403 0 0 1-2.2251 0.534l-31.063 0.65865a5.3403 5.3403 0 0 1-2.4031-0.50733 5.4471 5.4471 0 0 1-3.1775-4.9576v-22.456z" opacity=".1"/>
  <path d="m273.28 508.71v21.797a5.456 5.456 0 0 1-3.1152 4.9309 5.3403 5.3403 0 0 1-2.2251 0.534l-31.063 0.65865a5.3403 5.3403 0 0 1-2.4031-0.50733 5.4471 5.4471 0 0 1-3.1775-4.9576v-22.456z" fill="#3f3d56"/>
  <rect x="614.02" y="508.71" width="41.984" height="28.037" fill="#3f3d56"/>
  <rect x="614.02" y="508.71" width="41.984" height="28.037" opacity=".1"/>
  <rect x="612.24" y="508.71" width="41.984" height="28.037" fill="#3f3d56"/>
 </g>
 <polygon transform="matrix(.89005 0 0 .89005 7.9582 78.227)" points="211.6 271.06 211.6 265.82 230.6 265.82 230.6 271.55" opacity=".1"/>
 <path d="m324.51 171.15-20.32 145.97a3.8272 3.8272 0 0 1-3.8895 3.3021l-162.7-4.2188-3.0885-0.0801a3.8272 3.8272 0 0 1-3.7026-4.3345l22.812-152.8a3.8272 3.8272 0 0 1 4.0408-3.2309l163.29 11.054a3.8183 3.8183 0 0 1 3.5602 4.3434z" fill="#65617d" stroke-width=".89005"/>
 <polygon transform="matrix(.89005 0 0 .89005 7.9582 78.227)" points="324.6 255.82 345.26 109.82 175.93 99.16 156.6 250.49" fill="#449dcf"/>
 <rect x="350.27" y="164.4" width="182.17" height="154.27" rx="4.744" ry="4.744" fill="#65617d" stroke-width=".89005"/>
 <rect x="358.87" y="174.79" width="165.55" height="128.46" fill="#449dcf" stroke-width=".89005"/>
 <polygon transform="matrix(.89005 0 0 .89005 7.9582 78.227)" points="722.93 267 722.93 262.82 741.93 262.82 741.93 266.61" opacity=".1"/>
 <path d="m744.62 309.3a2.7413 2.7413 0 0 1-2.6701 2.9194l-166.62 3.4445a2.7413 2.7413 0 0 1-2.7858-2.4832l-14.321-148.89a2.7413 2.7413 0 0 1 2.5989-2.9995l165.35-8.224 1.7801-0.089a2.7324 2.7324 0 0 1 2.866 2.4921z" fill="#65617d" stroke-width=".89005"/>
 <polygon transform="matrix(.89005 0 0 .89005 7.9582 78.227)" points="812.93 246.82 644.6 250.82 628.93 103.16 798.6 94.82" fill="#449dcf"/>
 <g stroke-width=".89005">
  <path d="m744.62 309.3a2.7413 2.7413 0 0 1-2.6701 2.9194l-15.772-159.15 1.7801-0.089a2.7324 2.7324 0 0 1 2.866 2.4921z" opacity=".1"/>
  <path d="m157.69 155.74-20.088 160.46-3.0885-0.0801a3.8272 3.8272 0 0 1-3.7026-4.3345l22.812-152.8a3.8272 3.8272 0 0 1 4.0675-3.2398z" opacity=".1"/>
  <rect x="196.29" y="350.95" width="16.911" height="15.202" opacity=".1"/>
 </g>
 <polygon transform="matrix(.89005 0 0 .89005 7.9582 78.227)" points="250.93 489.88 250.93 483.65 298.1 483.65 298.1 488.62" opacity=".1"/>
 <path d="m347.38 356.24v149.71a3.5602 3.5602 0 0 1-3.4267 3.5157l-170.58 4.5392h-0.0445a3.5602 3.5602 0 0 1-3.5157-3.5157v-154.25a3.5602 3.5602 0 0 1 3.5157-3.5157h170.53a3.5602 3.5602 0 0 1 3.5157 3.5157z" fill="#65617d" stroke-width=".89005"/>
 <path d="m173.37 352.73v161.28h-0.0445a3.5602 3.5602 0 0 1-3.5157-3.5157v-154.25a3.5602 3.5602 0 0 1 3.5157-3.5157z" opacity=".1" stroke-width=".89005"/>
 <polygon transform="matrix(.89005 0 0 .89005 7.9582 78.227)" points="372.1 467.4 194.6 471.4 194.6 319.15 372.1 319.15" fill="#d4dfec"/>
 <rect x="651.4" y="350.95" width="16.911" height="15.505" opacity=".1" stroke-width=".89005"/>
 <polygon transform="matrix(.89005 0 0 .89005 7.9582 78.227)" points="678.93 488.8 678.93 483.65 726.1 483.65 726.1 490.06" opacity=".1"/>
 <path d="m709.63 356.24v154.25a3.5602 3.5602 0 0 1-3.5602 3.5157l-170.61-4.5392a3.5602 3.5602 0 0 1-3.4267-3.5157v-149.71a3.5602 3.5602 0 0 1 3.5157-3.5157h170.53a3.5602 3.5602 0 0 1 3.5513 3.5157z" fill="#65617d" stroke-width=".89005"/>
 <path d="m709.63 356.24v154.25a3.5602 3.5602 0 0 1-3.5602 3.5157v-161.28a3.5602 3.5602 0 0 1 3.5602 3.5157z" opacity=".1" stroke-width=".89005"/>
 <polygon transform="matrix(.89005 0 0 .89005 7.9582 78.227)" points="598.1 467.4 775.6 471.4 775.6 319.15 598.1 319.15" fill="#d4dfec"/>
 <path d="m527.61 356.24v149.71a3.5602 3.5602 0 0 1-3.4267 3.5157l-170.58 4.5392a3.5602 3.5602 0 0 1-3.5602-3.5157v-154.25a3.5602 3.5602 0 0 1 3.5157-3.5157h170.53a3.5602 3.5602 0 0 1 3.5157 3.5157z" fill="#65617d" stroke-width=".89005"/>
 <polygon transform="matrix(.89005 0 0 .89005 7.9582 78.227)" points="574.6 467.4 397.1 471.4 397.1 319.15 574.6 319.15" fill="#d4dfec"/>
 <polygon transform="matrix(.89005 0 0 .89005 7.9582 78.227)" points="711.18 548.05 709.56 548.08 651.82 548.61 650.44 548.63 632.89 548.78 632.37 548.78 525.39 549.77 349.78 551.4 349.63 551.4 304.98 551.82 304.5 551.83 106.1 553.65 106.1 538.65 308.61 537.32 309.09 537.32 350.08 537.04 350.27 537.04 633.35 535.17 633.64 535.17 633.81 535.16 634.28 535.16 639.07 535.13 640.53 535.13 715.02 534.63 719.42 534.61 720.4 534.6 863.1 533.65 863.1 546.65" opacity=".1"/>
 <g stroke-width=".89005">
  <circle cx="441.64" cy="320.46" r="45.686" fill="#fbbebe"/>
  <path d="m278.89 569.69c0-0.0979 0.0534-0.2047 0.089-0.3115 0.89004-3.1953 2.4743-8.5979 3.6581-12.915 0.1513-0.53402 0.29371-1.0592 0.42723-1.5576 1.3084-4.8686 3.8539-16.27 5.2691-23.382 0.49844-2.501 0.89005-4.4502 0.97016-5.4293 0.178-1.5042 2.857-7.9392 5.8921-15.336 2.1272-5.1979 4.4502-10.876 6.1502-15.665a54.631 54.631 0 0 0 2.6078-8.767 4.5392 4.5392 0 0 0 0-1.8958 13.075 13.075 0 0 1-0.42723-3.1152c-0.20471-5.5183 1.4419-14.241 3.9874-17.899 3.1152-4.4502 5.3403-21.059 5.3403-21.059s4.6104 0.66754 5.3403-3.1419a5.4738 5.4738 0 0 0 0.089-1.2461 6.5953 6.5953 0 0 0-0.0801-0.98795c-0.79214-5.5539 13.102-11.464 20.916-12.737a17.507 17.507 0 0 1 2.6702-0.24922 24.245 24.245 0 0 0 5.5628-1.2817q1.2461-0.38274 2.6701-0.89005c3.2754-1.1037 7.1916-2.5633 11.348-4.1654 15.629-6.0612 34.552-14.241 34.552-14.241 0.13352-0.63194 0.28482-1.2372 0.45393-1.8335a24.663 24.663 0 0 1 14.552-16.849v-1.7801c0-3.0707-0.1335-6.2303-0.26702-9.3811 0-0.61413-0.0534-1.2283-0.089-1.8424v-0.54292-0.46283c0-0.62304-0.0623-1.2461-0.0979-1.8602l-0.16021-0.12461a14.606 14.606 0 0 1-3.4712-3.7382 13.591 13.591 0 0 1-1.2639-2.6702c-1.1126-3.0173-1.3707-6.3816-2.1183-9.568l-0.16023-0.65864a74.764 74.764 0 0 0-3.5602-9.4167c-1.967-4.824-3.4801-9.7905-4.9843-14.819q-1.3707-4.5659-2.768-9.1497l-1.4063-4.6639c-0.26702-0.89005-0.53404-1.7801-0.73875-2.6701a11.811 11.811 0 0 1-0.23141-1.2461 8.9005 8.9005 0 0 1 0.21362-4.1031 28.562 28.562 0 0 1 1.1749-2.6702 7.0047 7.0047 0 0 0 0.44503-1.2283 2.6701 2.6701 0 0 0 0.0712-0.28482 5.0288 5.0288 0 0 0 0.098-0.96125 16.43 16.43 0 0 0-0.46283-3.4623 0.062303 0.062303 0 0 1 0-0.0445 2.2785 2.2785 0 0 0-0.0444-0.2403 22.678 22.678 0 0 1-0.32041-2.6702 25.322 25.322 0 0 1 3.0884-13.858l0.16911-0.32041a22.447 22.447 0 0 1 1.6377-2.4743c0.27592-0.37381 0.56073-0.72983 0.89006-1.0858-1.2461 1.1927-3.2932 0.66753-4.4502-0.61414a3.2131 3.2131 0 0 1-0.48952-0.66753 3.3911 3.3911 0 0 1-0.20473-0.40052c-0.0444-0.10681-0.0801-0.22252-0.11569-0.33822-0.62304-2.1806 0.46281-4.5036 1.8869-6.2748a16.457 16.457 0 0 1 5.1089-4.1832 3.4178 3.4178 0 0 1 0.35601-0.18691 15.238 15.238 0 0 1 2.3497-0.94345 13.404 13.404 0 0 1 1.4508-0.39161l-3.3021-0.30263-1.3351-0.1246a12.897 12.897 0 0 1 11.571-9.7104h0.96126a10.44 10.44 0 0 1 1.3974 0.11571 3.9518 3.9518 0 0 1-2.3586-3.8539 12.826 12.826 0 0 0 8.1795 2.7236h0.33823a26.701 26.701 0 0 1-0.30262-2.9105 29.541 29.541 0 0 1 0-3.9696 7.512 7.512 0 0 0 6.0345 2.0115l-1.8513-2.5812a8.4466 8.4466 0 0 0 5.8387 1.8246l0.42724-0.0445a6.2303 6.2303 0 0 0 1.0592-0.20471h0.0801c-0.16912-0.2136-0.32042-0.43612-0.47172-0.66753l-0.0534-0.10681a8.6068 8.6068 0 0 1-0.89004-1.8602 5.8654 5.8654 0 0 1-0.21361-0.77435 7.7879 7.7879 0 0 1 0.40052-4.8508c2.8749 2.4031 6.0256 5.6874 9.7905 3.2042 3.7649-2.4832 3.8895-7.0403 9.7905-6.5774a9.0785 9.0785 0 0 1 7.4853 5.4471 6.0078 6.0078 0 0 1 6.8267-1.5576 6.0968 6.0968 0 0 1 3.4534 6.1324c2.4476-0.61413 5.0822-1.2194 7.4319-0.29372 2.3497 0.92565 3.8628 3.9251 2.5278 5.9277a1.2728 1.2728 0 0 1-0.12462 0.17801c-1.0947 1.4152-3.5157 2.1895-3.2576 3.9696l0.37382 0.267 1.1571 0.83665q6.8089 4.9131 13.262 10.325c2.2073 1.8513 4.557 4.0764 4.7084 6.9691a7.69 7.69 0 0 1-0.21361 2.1094c-0.1424 0.69425-0.3382 1.3885-0.48953 2.0827a17.365 17.365 0 0 0-0.3026 5.3848c0.0623 0.52514 0.1424 1.0414 0.24031 1.5665 1.3618 6.8801 6.8623 12.559 7.4052 19.581v0.49844a15.825 15.825 0 0 1-0.0623 2.2518c-0.40942 4.2722-2.3853 8.3754-3.9874 12.461-0.0979 0.24921-0.19581 0.49843-0.28482 0.74765-3.0884 8.0104-4.8686 16.546-6.2303 25.064a89.236 89.236 0 0 1-1.7801 8.9806 23.791 23.791 0 0 1-4.5303 9.2832 14.437 14.437 0 0 1-2.9906 2.6701 16.617 16.617 0 0 1-2.3586 1.255v0.0534c0.098 0.54295 0.17801 1.0859 0.27592 1.6288 0.0534 0.28481 0.098 0.56962 0.15131 0.89004a0.12461 0.12461 0 0 0 0 0.0534c0.74764 4.2099 1.6021 8.3308 2.501 12.247l0.45393 1.9492c11.215 4.0497 12.541 12.345 12.621 15.522a8.5801 8.5801 0 0 1 0 1.2728s16.911 0.44502 23.586 5.3403a18.104 18.104 0 0 0 4.0141 2.0471 73.874 73.874 0 0 0 8.2329 2.5722c1.433 0.37383 2.9282 0.73875 4.4502 1.0948 2.6702 0.61412 5.5005 1.2105 8.233 1.7801 7.2895 1.4686 14.152 2.6702 17.632 3.5602 8.3042 2.1005 27.298 20.311 27.298 20.311s2.2251 18.371 4.4502 21.05c2.2251 2.6791 6.2303 12.096 6.2303 12.096l14.721 26.176 6.2303 11.01h4.0052c0.55183 0 1.6377 0.78325 2.857 1.8691 1.0592 0.94345 2.234 2.1183 3.2665 3.1864l1.7089 1.8246 1.0681 1.1838s6.4707 0.1602 8.224 5.278c5.2691-0.1513 11.74 0.19582 16.27 2.2251a12.585 12.585 0 0 1 1.7801 0.96125 7.7256 7.7256 0 0 1 3.6759 5.0377 7.423 7.423 0 0 1 0.16022 1.2817v1.5131c-0.32042 6.7377-4.7084 12.345-8.7403 16.119l0.28482 0.50733s-0.13352 0.3204-0.39162 0.89005c-0.0713 0.1691-0.16022 0.356-0.25813 0.56962-0.52511 1.1215-1.3618 2.8036-2.4565 4.7707a56.349 56.349 0 0 1-8.5178 11.722l-0.25811 0.26701-51.391 0.47173-0.15133-0.17802-9.9685-11.891-4.9576-5.9099-0.15132-0.1869-0.1424 1.4152-0.48062 4.7173-1.1571 11.402-0.0623 0.56964v0.15131l-0.13351 1.3173 0.098-1.3173h-0.25812l-95.235 0.89004-156.31 1.7267v0.74764h-0.12459v-0.74764l-39.83 0.42722z" fill="url(#dff037aa-d578-4bab-81e7-399360663117)"/>
  <path d="m487.34 413.92s-88.56 10.681-80.104 0c3.0618-3.8628 3.9073-15.309 3.7382-28.348-0.0534-3.9607-0.1958-8.0638-0.40053-12.149-0.97905-19.581-3.3377-38.717-3.3377-38.717s77.434-36.492 68.534-7.5654c-3.5602 11.686-2.3942 28.099 0.31153 43.506 0.79214 4.4947 1.7089 8.9005 2.6701 13.084a306.77 306.77 0 0 0 8.589 30.19z" fill="#fbbebe"/>
  <path d="m487.34 413.92s-88.56 10.681-80.104 0c3.0618-3.8628 3.9073-15.309 3.7382-28.348 13.502-5.7675 30.68-1.4686 30.68-1.4686 18.086-3.6047 29.683-2.9016 37.097-0.37383a306.77 306.77 0 0 0 8.589 30.19z" opacity=".1"/>
  <path d="m319.24 570.01v-0.74764l156.31-1.7 95.235-0.89004h0.26702l-0.0979 1.3173 0.1335-1.3173h0.16911v-0.15131l1.2194-11.971 0.46283-4.5304 0.1424-1.4152 0.12462-1.1838 5.5005-18.344 5.5005-18.317 4.6282-15.425 7.067-23.568s-4.0052-9.3455-6.2303-12.016c-2.2251-2.6701-4.4502-20.916-4.4502-20.916s-18.994-18.095-27.298-20.177c-3.4801-0.89005-10.351-2.0738-17.65-3.5602-2.7324-0.55184-5.5361-1.1393-8.2329-1.7801-1.522-0.34713-3.0173-0.71204-4.4502-1.077a78.244 78.244 0 0 1-8.233-2.5455 18.424 18.424 0 0 1-4.0052-2.0382c-6.5418-4.7974-22.937-5.3403-23.568-5.3403a0.37382 0.37382 0 0 1 0-0.0623v-0.0801a9.1319 9.1319 0 0 0 0-1.1215c0-0.35601 0-0.77433-0.0801-1.2461 0-0.14241 0-0.29371-0.0623-0.44502-0.0445-0.32041-0.098-0.65863-0.178-1.0146a4.4502 4.4502 0 0 0-0.10681-0.47173 15.318 15.318 0 0 0-1.1126-3.1063c-0.0623-0.14241-0.1424-0.29372-0.21361-0.43613a16.243 16.243 0 0 0-1.5131-2.3408c-0.1157-0.1513-0.2403-0.31151-0.37382-0.46281a17.427 17.427 0 0 0-2.4209-2.3497c-0.24032-0.18691-0.48953-0.38271-0.74765-0.56073a4.1565 4.1565 0 0 0-0.45392-0.32042l-0.79214-0.51622-0.73874-0.42722c-0.64973-0.35603-1.3351-0.70313-2.0827-1.0325-0.23142-0.10681-0.48063-0.20471-0.72985-0.30262-0.24921-0.0979-0.64082-0.24921-0.97016-0.37381h-0.0534l-0.66753-0.26702c-0.50733-0.1691-1.0236-0.32042-1.5665-0.47172l-0.82774-0.21362-0.89005-0.20471-0.89004-0.1869c-0.89005-0.17801-1.8424-0.33822-2.8393-0.46283l-1.0147-0.12461-1.0414-0.10681-1.077-0.089-1.5309-0.089-1.7801-0.0623a110.97 110.97 0 0 0-23.355 2.4832 64.324 64.324 0 0 0-16.252-1.4953h-0.77433l-0.89005 0.0534h-0.56963l-1.1482 0.1068c-0.38273 0-0.77435 0.0801-1.1571 0.13351-0.38273 0.0534-0.78324 0.098-1.166 0.16023l-0.58743 0.0979c-0.57854 0.098-1.166 0.2047-1.7801 0.32931q-0.29372 0.0534-0.58742 0.1335c-0.77435 0.16912-1.5487 0.37383-2.3141 0.60524-0.38272 0.10681-0.76545 0.23141-1.1482 0.36492-0.1958 0.0534-0.38271 0.12461-0.56963 0.19581l-0.56963 0.20472-0.56073 0.2225-0.66754 0.26702c-0.3382 0.1424-0.66753 0.29372-0.99685 0.45392-0.18691 0.0801-0.37382 0.16911-0.55182 0.26702-0.17801 0.0979-0.36493 0.178-0.53404 0.27592a24.699 24.699 0 0 0-5.5272 3.8984l-0.45393 0.43612-0.44503 0.45392c-0.1513 0.15131-0.29371 0.31153-0.43612 0.47173a21.201 21.201 0 0 0-1.6199 2.0026c-0.14241 0.1869-0.27592 0.37381-0.40943 0.56963a23.755 23.755 0 0 0-1.5309 2.5989c-0.1157 0.21361-0.22251 0.43612-0.32932 0.64975a29.105 29.105 0 0 0-1.7801 4.6727q-0.24922 0.89005-0.45392 1.7801s-18.842 8.313-34.472 14.33c-4.1565 1.6021-8.0727 3.0529-11.348 4.1476-0.95235 0.32042-1.8424 0.61413-2.6702 0.89004a23.764 23.764 0 0 1-5.5628 1.2817 17.507 17.507 0 0 0-2.6701 0.24921c-7.1827 1.166-19.492 6.2304-20.836 11.313a3.2843 3.2843 0 0 0-0.089 1.2461v0.098c0.89006 6.2303-5.3403 5.3403-5.3403 5.3403s-2.2251 16.466-5.3403 20.916c-2.2518 3.2042-3.7916 10.351-3.9874 15.745a17.454 17.454 0 0 0 0.39163 5.011v0.12461c0.35602 1.1927-0.49843 4.4502-1.9492 8.6246-1.5754 4.5837-3.8717 10.28-6.079 15.656-3.3288 8.1172-6.4618 15.487-6.6576 17.107-0.0801 0.72093-0.31152 2.0115-0.63193 3.6759-1.2995 6.7822-4.1832 19.697-5.6073 24.921-1.0592 3.8984-2.5989 9.2387-3.6581 12.906 0 0.10681-0.0623 0.21362-0.089 0.31152l39.901-0.39162v0.74764h0.12461z" fill="#449dcf"/>
  <path d="m333.8 465.1s50.733 26.256 68.979 23.141z" opacity=".1"/>
  <path d="m437.05 454.41s49.398 16.021 65.864 18.246c16.466 2.2251-65.864-18.246-65.864-18.246z" opacity=".1"/>
  <path d="m491.84 402.86c-25.811 4.7529-74.408 3.7293-95.413 3.0084 7.6989-27.591 45.241-18.21 45.241-18.21 46.469-9.2743 50.03 9.9685 50.172 15.202z" opacity=".1"/>
  <path d="m491.84 401.08c-25.811 4.7528-74.408 3.7293-95.413 3.0084 7.6989-27.591 45.241-18.21 45.241-18.21 46.469-9.2743 50.03 9.9685 50.172 15.202z" fill="#449dcf"/>
  <path d="m628.86 522.73s30.404-4.6728 31 8.678c0.59633 13.351-15.505 22.678-15.505 22.678z" fill="#fbbebe"/>
  <path d="m476.08 370.64a41.832 41.832 0 0 1-4.0052 1.5487c-9.5947 3.311-19.27 6.6487-29.372 7.8591-10.102 1.2105-20.702 0.14241-29.514-4.8953a25.607 25.607 0 0 1-2.6702-1.7356c-0.97905-19.581-3.3377-38.717-3.3377-38.717s77.434-36.492 68.534-7.5654c-3.5424 11.686-2.3408 28.099 0.36492 43.506z" opacity=".1"/>
  <path d="m429.11 249.05a8.4288 8.4288 0 0 1-7.4052-1.5576l1.8513 2.5722a7.5387 7.5387 0 0 1-6.0345-2.0026 30.333 30.333 0 0 0 0.28482 6.8979 12.923 12.923 0 0 1-8.5089-2.6702 3.934 3.934 0 0 0 2.3497 3.8361 12.763 12.763 0 0 0-13.885 9.5324l4.646 0.42724a16.439 16.439 0 0 0-9.2921 5.6696c-1.4241 1.7801-2.5099 4.0586-1.8869 6.2303 0.62303 2.1717 3.6314 3.5602 5.2691 2.0115a24.868 24.868 0 0 0-5.4293 20.284 12.879 12.879 0 0 1 0.40943 4.6817c-0.29372 1.4686-1.2194 2.7413-1.6822 4.1743-0.89004 2.599-0.0445 5.4204 0.74765 8.0104l4.1743 13.725c1.5131 4.9576 3.0172 9.924 4.9932 14.721a73.055 73.055 0 0 1 3.5602 9.3544c1.1215 4.3078 1.166 9.0251 3.5602 12.79a17.739 17.739 0 0 0 6.3905 5.634c8.8026 5.0377 19.439 6.1057 29.514 4.8953s19.741-4.5482 29.327-7.8591a27.591 27.591 0 0 0 6.0879-2.6702c6.6308-4.3434 8.1083-13.226 9.3455-21.05 1.3796-8.7225 3.222-17.427 6.4885-25.633 1.9403-4.8864 4.4502-9.8439 4.023-15.077-0.54295-6.9513-6.0434-12.585-7.4052-19.421a16.911 16.911 0 0 1 0.0623-6.9157 15.718 15.718 0 0 0 0.70313-4.1832c-0.15131-2.866-2.501-5.0733-4.7084-6.9157q-7.1827-5.9989-14.828-11.339c-0.2581-1.7801 2.1628-2.5455 3.2576-3.9518 1.5487-1.9848-0.0534-5.1356-2.4031-6.0612-2.3497-0.92565-4.9843-0.32042-7.4319 0.29371a5.8654 5.8654 0 0 0-10.28-4.5481 9.0785 9.0785 0 0 0-7.4942-5.4115c-5.901-0.46282-6.0167 4.0497-9.7905 6.533s-6.889-0.79215-9.7905-3.1775a8.2596 8.2596 0 0 0 1.2105 8.1706z" fill="#3f3d56"/>
  <path d="m651.4 549.43s-0.79215 1.8869-2.2518 4.6194a61.413 61.413 0 0 1-8.0104 11.722l-0.24032 0.25811h-1.4419l-51.391 0.47173h-1.2282l-0.15133-0.17801-9.9685-11.829-3.756-4.4591-0.15132-0.18692-0.32041-0.37381-0.17801-0.21361-0.23141-0.27591-7.3073-8.6691 2.6701-11.126 4.5481-18.744 0.11572-0.45392 0.89004-3.5602 0.63194-2.6702 2.1183-8.7047 7.2628-29.95 12.906 6.6754 13.609 24.031 7.3073 12.906h4.0052c0.75653 0 2.4921 1.4597 4.2366 3.1419 0.62305 0.59634 1.2461 1.2283 1.7801 1.7801 1.5843 1.6377 2.8392 3.044 2.8392 3.044s6.4885 0.14241 8.2329 5.2513a6.2303 6.2303 0 0 1 0.22252 0.75654 35.869 35.869 0 0 0 2.2518 5.8387c1.1482 2.501 2.59 5.3403 4.0497 8.1795 2.7146 5.2068 5.4738 10.164 6.4884 11.962l0.12461 0.22252z" fill="#449dcf"/>
  <path d="m574.95 509.24-0.0889 1.2728v0.089l-0.15131 2.0471-1.1838 16.475-1.433 19.848-0.40943 5.5895-0.89005 11.962v0.1513l-95.235 0.89006-156.28 1.6911v0.74764h-0.12459v-0.99685l0.40051-12.781 0.76545-24.975 0.65863-21.174 0.0623-2.1094a9.3722 9.3722 0 0 1 10.164-9.0518c4.201 0.35602 9.657 0.79214 16.181 1.255l2.6702 0.19581c37.676 2.6167 107.3 5.9989 177.56 1.7801 1.4775-0.0801 2.9639-0.16912 4.4502-0.27593 10.894-0.68534 21.779-1.5665 32.558-2.6702a9.3722 9.3722 0 0 1 10.325 9.9952z" opacity=".1"/>
  <path d="m319.24 570.01v-0.74764l156.31-1.7 95.235-0.89004h0.26702v-0.15131l0.89004-11.962 0.38274-5.3403 1.4597-20.124 1.1482-15.932v-0.39163a9.4523 9.4523 0 0 0-0.0979-2.1984 0.26701 0.26701 0 0 0 0-0.0889 9.2476 9.2476 0 0 0-1.7801-4.1298 9.3811 9.3811 0 0 0-8.3842-3.5602c-10.778 1.1036-21.664 1.9848-32.558 2.6701-1.4864 0.1068-2.9728 0.19581-4.4502 0.27591-70.26 4.1743-139.89 0.79215-177.56-1.7801l-2.6701-0.19581c-6.524-0.46283-11.98-0.89005-16.181-1.255a9.3811 9.3811 0 0 0-10.004 7.5921 9.7905 9.7905 0 0 0-0.16021 1.4597l-0.60524 19.723-0.82774 24.984-0.39162 12.781v0.99685z" fill="#3f3d56"/>
  <path d="m575.21 515.48-1.0948 13.644-1.6288 20.338-0.40942 5.0911-0.89005 11.402-0.0534 0.56962v0.1513l-0.13351 1.3173 0.0979-1.3173h-0.25811l-95.235 0.89005-156.34 1.6911v-0.24922l0.43614-12.781 0.89005-24.975 0.56962-16.599a5.6607 5.6607 0 0 1 2.7235-4.6728 5.5628 5.5628 0 0 1 3.3644-0.80104c1.8691 0.1513 4.1654 0.32932 6.8445 0.52514 4.3523 0.3204 9.7193 0.69423 15.967 1.0858 11.571 0.72984 26.087 1.5131 42.722 2.1539 46.282 1.7801 108.76 2.3764 168.11-2.8214 2.6702-0.23142 5.4293-0.48953 8.1262-0.74766a5.5717 5.5717 0 0 1 3.0974 0.58744 4.5926 4.5926 0 0 1 0.76546 0.48062 5.4649 5.4649 0 0 1 1.7801 2.1895 3.1686 3.1686 0 0 1 0.22251 0.54294 5.5895 5.5895 0 0 1 0.32042 2.3052z" opacity=".1"/>
  <path d="m273.28 527.67v2.8392a5.456 5.456 0 0 1-3.1152 4.9309l-35.691 0.68532a5.4471 5.4471 0 0 1-3.1775-4.9576v-2.6701z" opacity=".1"/>
 </g>
 <polygon transform="matrix(.89005 0 0 .89005 7.9582 78.227)" points="246.35 507.9 298.6 506.9 298.6 515.57 246.35 516.57" fill="#3f3d56"/>
 <polygon transform="matrix(.89005 0 0 .89005 7.9582 78.227)" points="246.35 507.9 298.6 506.9 298.6 515.57 246.35 516.57" opacity=".1"/>
 <polygon transform="matrix(.89005 0 0 .89005 7.9582 78.227)" points="248.35 507.9 300.6 506.9 300.6 515.57 248.35 516.57" fill="#3f3d56"/>
 <g transform="matrix(.89005 0 0 .89005 7.9582 78.227)" opacity=".1">
  <path transform="translate(-79.34,-172.91)" d="m552.93 361.56a9.75 9.75 0 0 1-1.89-4.34 9.49 9.49 0 0 0 0.42 4.6 9 9 0 0 0 1.47-0.26z"/>
  <path transform="translate(-79.34,-172.91)" d="m540.23 368.2a35.12 35.12 0 0 1-0.37-3.7v3.71z"/>
  <path transform="translate(-79.34,-172.91)" d="m621.73 401.57a18.34 18.34 0 0 1 0.36-2.65 18 18 0 0 0 0.8-4.69 6.16 6.16 0 0 0-0.16-1.06c-0.17 0.92-0.44 1.84-0.64 2.75a19.14 19.14 0 0 0-0.36 5.65z"/>
  <path transform="translate(-79.34,-172.91)" d="m600.93 370.67 1.09 0.79a19.71 19.71 0 0 0 2.57-2.22 3.67 3.67 0 0 0 0.38-3.64 3 3 0 0 1-0.38 0.64c-1.23 1.58-3.95 2.45-3.66 4.43z"/>
  <path transform="translate(-79.34,-172.91)" d="m518.76 380.29a12.32 12.32 0 0 0-0.87 2.28 18.16 18.16 0 0 1 5-1.89z"/>
  <path transform="translate(-79.34,-172.91)" d="m532.55 369.41a14.83 14.83 0 0 1-1.88-1.23 4.25 4.25 0 0 0 0.09 1.18 11.86 11.86 0 0 1 1.79 0.05z"/>
  <path transform="translate(-79.34,-172.91)" d="m630.32 428.33c-0.41 4.85-2.67 9.52-4.5 14.12-3.67 9.22-5.74 19-7.29 28.81-1.39 8.79-3 18.77-10.5 23.64a30 30 0 0 1-6.83 3c-10.78 3.73-21.65 7.47-33 8.83s-23.26 0.17-33.16-5.49a20 20 0 0 1-7.18-6.33c-2.67-4.23-2.72-9.53-4-14.37a82.21 82.21 0 0 0-4-10.52c-2.21-5.38-3.91-11-5.6-16.53q-2.35-7.71-4.69-15.43a28.81 28.81 0 0 1-1.14-4.75c-0.39 2.56 0.37 5.24 1.14 7.75q2.34 7.73 4.69 15.43c1.69 5.57 3.39 11.15 5.6 16.53a82.21 82.21 0 0 1 4 10.52c1.26 4.84 1.31 10.14 4 14.37a20 20 0 0 0 7.18 6.33c9.9 5.66 21.84 6.85 33.16 5.49s22.18-5.1 33-8.83a30 30 0 0 0 6.83-3c7.45-4.87 9.11-14.85 10.5-23.64 1.55-9.81 3.62-19.59 7.29-28.81 2.18-5.48 5-11.05 4.52-16.94 0-0.06-0.02-0.12-0.02-0.18z"/>
  <path transform="translate(-79.34,-172.91)" d="m510.63 424.46v-0.11a14 14 0 0 0-0.46-5.25 26.59 26.59 0 0 1-0.39-3.32 27.35 27.35 0 0 0 0.39 6.32c0.16 0.78 0.34 1.57 0.46 2.36z"/>
  <path transform="translate(-79.34,-172.91)" d="m513.68 400a27.74 27.74 0 0 1 2.61-3.67c-1.83 1.75-5.21 0.19-5.92-2.24a5.83 5.83 0 0 0 0 3 4.39 4.39 0 0 0 3.31 2.91z"/>
 </g>
 <path d="m616.84 508.71s2.8214 10.236 0 19.136c-2.8214 8.9005 0-19.136 0-19.136z" opacity=".1" stroke-width=".89005"/>
 <path d="m628.86 519.15s1.1838 12.995-1.4864 15.3c-2.6702 2.3052 1.4864-15.3 1.4864-15.3z" opacity=".1" stroke-width=".89005"/>
 <g transform="matrix(.89005 0 0 .89005 7.9582 78.227)" fill="#449dcf" stroke="#449dcf" stroke-miterlimit="10" stroke-width="2">
  <line x1="198.99" x2="300.6" y1="342.86" y2="341.86"/>
  <line x1="198.99" x2="300.6" y1="355.33" y2="354.34"/>
  <line x1="198.99" x2="300.6" y1="367.81" y2="366.81"/>
 </g>
</svg>
