<?xml version="1.0" encoding="UTF-8" standalone="no"?>
<svg
   xmlns:dc="http://purl.org/dc/elements/1.1/"
   xmlns:cc="http://creativecommons.org/ns#"
   xmlns:rdf="http://www.w3.org/1999/02/22-rdf-syntax-ns#"
   xmlns:svg="http://www.w3.org/2000/svg"
   xmlns="http://www.w3.org/2000/svg"
   xmlns:sodipodi="http://sodipodi.sourceforge.net/DTD/sodipodi-0.dtd"
   xmlns:inkscape="http://www.inkscape.org/namespaces/inkscape"
   inkscape:version="1.0 (6e3e5246a0, 2020-05-07)"
   sodipodi:docname="logo-JanVanHest.svg"
   viewBox="0 0 189.18668 256.51999"
   height="256.51999"
   width="189.18668"
   xml:space="preserve"
   id="svg28"
   version="1.1"><metadata
     id="metadata34"><rdf:RDF><cc:Work
         rdf:about=""><dc:format>image/svg+xml</dc:format><dc:type
           rdf:resource="http://purl.org/dc/dcmitype/StillImage" /><dc:title></dc:title></cc:Work></rdf:RDF></metadata><defs
     id="defs32" /><sodipodi:namedview
     inkscape:current-layer="g36"
     inkscape:window-maximized="1"
     inkscape:window-y="27"
     inkscape:window-x="72"
     inkscape:cy="128.25999"
     inkscape:cx="94.593338"
     inkscape:zoom="3.2473103"
     showgrid="false"
     id="namedview30"
     inkscape:window-height="1016"
     inkscape:window-width="1848"
     inkscape:pageshadow="2"
     inkscape:pageopacity="0"
     guidetolerance="10"
     gridtolerance="10"
     objecttolerance="10"
     borderopacity="1"
     bordercolor="#666666"
     pagecolor="#ffffff" /><g
     transform="matrix(1.3333333,0,0,-1.3333333,0,256.52)"
     inkscape:label="ink_ext_XXXXXX"
     inkscape:groupmode="layer"
     id="g36"><g
       transform="scale(0.1)"
       id="g38"><path
         id="path40"
         style="fill:#449dcf;fill-opacity:1;fill-rule:evenodd;stroke:none"
         d="m 1418.81,1367.72 c 0,-45.35 0.02,-90.72 0,-136.08 -0.04,-84.23 -0.14,-168.48 -0.16,-252.718 0,-29.25 0.26,-58.492 0.22,-87.742 -0.02,-11.551 0.07,-23.149 -0.88,-34.641 -1.57,-19.168 -12.55,-31.93 -29.81,-39.168 -13.11,-5.531 -25.86,-3.359 -37.38,4.719 -10.35,7.269 -17.28,17.129 -21.08,29.301 -4.53,14.488 -4.9,29.218 -3.93,44.191 0.67,10.289 0.66,20.637 0.66,30.965 -0.02,40.461 -0.2,80.913 -0.22,121.363 -0.04,75.83 -0.04,151.66 -0.02,227.5 0.01,22.59 0.18,45.18 0.15,67.78 -0.09,73.2 -0.25,146.4 -0.32,219.61 -0.02,22.24 -0.1,44.47 0.35,66.71 0.25,12.19 -6.27,19.56 -15.9,25.08 -2.01,1.16 -4.67,1.62 -7.04,1.64 -17.16,0.14 -34.35,-0.44 -51.48,0.3 -10.82,0.47 -26.01,-12.95 -25.61,-25.17 0.63,-18.88 0.01,-37.81 -0.01,-56.73 -0.12,-108.92 -0.27,-217.86 -0.31,-326.79 -0.06,-89.67 0.02,-179.35 0,-269.016 0,-27.668 -0.34,-55.344 -0.26,-83.015 0.18,-63.219 0.2,-126.438 0.94,-189.649 0.33,-27.441 -2.02,-54.629 -6.17,-81.609 -2.78,-18.11 -6.82,-36.211 -12.29,-53.711 -8.39,-26.871 -17.63,-53.512 -30.31,-78.84 -6.11,-12.211 -11.44,-24.82 -18.79,-36.359 -15.33,-24.09 -31.09,-47.903 -49.34,-69.911 -15,-18.101 -31.97,-34.339 -48.82,-50.671 -28.12,-27.219 -60.14,-49.098 -93.969,-68.528 -16.445,-9.461 -33.398,-17.66 -51.269,-24.082 -8.379,-3.019 -16.231,-7.48 -24.532,-10.73 -6.171,-2.41 -12.644,-4.09 -19.05,-5.828 -11.157,-3.02 -22.453,-5.551 -33.528,-8.821 -20.761,-6.109 -41.828,-10.371 -63.457,-11.281 -25.879,-1.117 -51.738,-3.359 -77.683,-1.641 -9.957,0.672 -19.946,0.872 -29.922,1.133 -16.738,0.43 -33.027,3.297 -49.145,7.828 -13.14,3.692 -26.457,6.821 -39.793,9.723 -15.132,3.297 -29.687,8.148 -43.812,14.449 -7.992,3.559 -16.203,6.641 -24.227,10.129 -7.058,3.059 -14.168,6.09 -20.965,9.68 -26.511,14.012 -51.992,29.711 -76.078,47.601 -18.734,13.911 -35.82,29.707 -52.297,46.219 -11.257,11.281 -22.757,22.32 -32.765,34.762 -22.778,28.34 -42.883,58.449 -59.91,90.558 -7.961,15.02 -14.516,30.692 -20.282,46.7 -4.093,11.359 -8.859,22.48 -12.82,33.89 -5.051,14.559 -9.441,29.321 -11.984,44.59 -1.301,7.75 -3.121,15.442 -4.903,23.11 -2.414,10.421 -4.566,20.859 -4.898,31.609 -0.535,17.312 -1.824,34.652 -1.563,51.961 0.317,20.551 10.684,35.371 29.02,44.59 6.133,3.082 12.793,3.539 19.469,3.55 31.699,0.079 63.394,0.09 95.093,0.102 68.833,0.02 137.665,0.039 206.493,0.039 18.734,0 37.472,0.008 56.207,-0.191 4.691,-0.059 9.425,-0.66 14.043,-1.539 13.597,-2.59 22.8,-11.34 29.203,-22.86 5.133,-9.242 6.824,-19.453 4.176,-30.019 -4.309,-17.18 -15.622,-27.832 -31.942,-33.223 -12.953,-4.301 -26.582,-4.348 -40.066,-4.359 -84.239,-0.09 -168.485,-0.039 -252.727,-0.039 -2.273,0 -4.558,-0.121 -6.824,0 -10.648,0.621 -17.391,-5.332 -22.48,-13.661 -1.192,-1.941 -1.661,-4.648 -1.586,-6.98 0.109,-3.641 0.793,-7.301 1.55,-10.891 3.969,-18.828 7.282,-37.781 13.887,-56 10.359,-28.597 22.926,-56.148 39.242,-81.781 16.364,-25.699 33.285,-51.09 55.864,-72.039 12.957,-12.019 25.226,-24.867 38.835,-36.098 23.555,-19.429 49.18,-35.929 76.524,-49.64 4.523,-2.281 9.242,-4.199 13.965,-6.071 6.676,-2.64 13.617,-4.66 20.125,-7.648 20.054,-9.203 41.398,-13.773 62.695,-18.953 27.406,-6.66 55.254,-9.09 83.149,-11.5 6.73,-0.59 13.632,0.09 20.402,0.762 14.277,1.41 28.574,2.789 42.754,4.968 9.824,1.512 19.453,4.379 29.187,6.551 4.106,0.93 8.215,1.82 12.375,2.399 14.004,2.011 27.188,6.589 40.098,12.16 12.383,5.34 24.785,10.621 37.109,16.082 21.524,9.558 41.68,21.469 60.977,34.929 20.793,14.489 39.609,31.149 56.645,49.879 9.77,10.75 20.21,20.942 29.45,32.129 16.07,19.492 29.12,41.094 41.56,63.063 12.51,22.09 22.06,45.308 28.85,69.719 2.77,9.949 5.56,19.91 8.74,29.742 6.08,18.769 6.27,38.269 7.72,57.629 2.45,32.519 1.94,65.109 1.97,97.679 0.16,194.746 0.06,389.5 0.06,584.26 0,39.23 -0.07,78.46 0.04,117.69 0.05,14.01 0.9,28 0.82,42 -0.15,28.89 -0.8,57.78 -1.03,86.68 -0.14,15.58 0.14,31.17 0.24,46.75 0.11,15.39 0,30.8 0.46,46.19 0.3,10.04 2.03,20.12 7.31,28.75 7.9,12.93 19.06,21.86 34.82,23.5 4.69,0.49 9.41,0.94 14.11,0.96 36.96,0.13 73.91,0.15 110.85,0.25 12.6,0.04 24.57,11.04 24.92,23.61 0.37,12.58 -0.04,25.2 -0.25,37.81 -0.02,1.69 -0.47,3.56 -1.31,5.01 -5.6,9.77 -12.95,16.77 -25.29,16.62 -18.22,-0.24 -36.43,-0.08 -54.65,-0.08 -78.46,0 -156.91,0.03 -235.38,0 -29.6,-0.02 -59.198,-0.38 -88.8,-0.12 -11.648,0.1 -19.734,-4.96 -25.449,-14.5 -1.379,-2.29 -2.402,-5.19 -2.441,-7.83 -0.274,-24.15 0.117,-48.32 -0.528,-72.47 -0.468,-17.33 7.395,-29.71 20.45,-39.79 7.89,-6.1 15.871,-12.11 23.418,-18.63 12.46,-10.76 24.14,-22.46 34.238,-35.47 7.59,-9.8 14.453,-20.23 20.898,-30.83 6.543,-10.75 12.864,-21.75 18.024,-33.2 5.67,-12.57 10.36,-25.64 14.6,-38.77 2.9,-8.94 4.48,-18.33 6.35,-27.59 1.53,-7.54 2.37,-15.22 3.98,-22.75 3.37,-15.87 4.27,-31.89 3.66,-48.05 -0.32,-8.22 -0.38,-16.46 -0.36,-24.69 0.2,-52.36 0.63,-104.72 0.66,-157.09 0.1,-149.39 0.07,-298.786 0.02,-448.181 0,-32.75 0.14,-65.507 -0.61,-98.238 -0.31,-13.601 -2.83,-27.133 -4.23,-40.711 -2.04,-19.781 -7.15,-38.762 -13.25,-57.672 -6.11,-18.968 -13.72,-37.129 -23.258,-54.476 -13.554,-24.703 -30.605,-46.891 -50.078,-67.203 -7.617,-7.95 -15.195,-16 -23.242,-23.52 C 910.41,456.422 895.02,446.93 879.52,437.68 c -18.524,-11.051 -37.821,-20.61 -58.075,-28.121 -20.34,-7.539 -41.316,-11.739 -62.988,-13.227 -25.762,-1.762 -51.441,-0.57 -77.172,0.309 -18.066,0.629 -35.441,3.839 -52.367,10.019 -11.023,4.039 -22.199,7.621 -33.203,11.68 -5.738,2.121 -11.379,4.59 -16.844,7.351 -16.129,8.098 -31.785,17.047 -46.348,27.789 -1.964,1.469 -3.886,3 -5.71,4.629 -12.149,10.84 -24.586,21.371 -36.301,32.661 -14.063,13.539 -25.922,29 -35.352,46.109 -8.445,15.312 -7.305,30.391 3.735,44.152 3.8,4.739 8.214,9.16 13.019,12.848 16.93,13.019 36.469,12 52.035,-2.66 5.973,-5.629 11.754,-11.59 16.809,-18.028 13.269,-16.972 28.738,-31.55 46.066,-44.23 10.887,-7.961 21.621,-16.16 34.004,-21.77 3.504,-1.589 7.063,-3.089 10.695,-4.332 9.282,-3.168 18.68,-5.98 27.915,-9.269 14.199,-5.051 28.96,-6.719 43.839,-7.692 22.114,-1.437 44.301,-0.636 65.754,4.563 27.324,6.629 52.981,17.609 76.262,34.059 31.484,22.242 54.727,51.332 73.398,84.511 12.012,21.328 19.305,44.207 22.286,68.489 1.406,11.468 3.046,22.91 4.472,34.378 0.371,2.954 0.449,5.942 0.449,8.903 -0.097,101.758 -0.261,203.519 -0.332,305.269 -0.058,99.66 0,199.31 -0.019,298.97 0,40.28 0.43,80.56 -0.188,120.84 -0.449,29.4 -4.683,58.44 -16.57,85.61 -12.226,27.97 -28.437,53.32 -51.777,73.78 -13.36,11.7 -27.129,22.61 -42.188,32.01 -6.777,4.23 -13.144,9.36 -18.965,14.85 -8.574,8.1 -13.523,18.32 -13.781,30.3 -0.437,20.66 -0.769,41.31 -0.879,61.97 -0.183,36.09 -0.105,72.2 -0.281,108.3 -0.059,10.51 0.098,20.93 1.973,31.36 3.132,17.47 19.082,36.93 42.793,38.89 7.832,0.64 15.722,0.87 23.593,0.91 17.325,0.07 34.661,-0.16 51.985,-0.15 47.984,0.02 95.978,0.16 143.948,0.18 88.46,0.04 176.9,0.06 265.35,-0.02 13.82,-0.01 27.66,-0.41 41.48,-0.82 15.45,-0.47 27.94,-6.64 37.41,-19.16 6.37,-8.42 8.21,-18.03 8.73,-28.1 0.34,-6.28 0.14,-12.6 0.14,-18.91 0,-163.05 0,-326.1 0,-489.16 0.17,0 0.33,0 0.49,0" /><path
         id="path42"
         style="fill:#449dcf;fill-opacity:1;fill-rule:evenodd;stroke:none"
         d="m 687.527,0.96875 c -21.086,2.04297 -42.222,3.62109 -63.234,6.26172 -17.883,2.23828 -35.637,5.55863 -53.402,8.64063 -5.68,0.9883 -11.262,2.5781 -16.825,4.1289 -16.183,4.5508 -32.418,8.9492 -48.48,13.8906 -10.527,3.2383 -20.813,7.2891 -31.176,11.0508 -6.914,2.5 -13.805,5.0586 -20.66,7.7188 -6.363,2.4687 -12.852,4.7304 -18.953,7.7304 -19.477,9.5782 -39.254,18.6602 -58.078,29.3907 -37.317,21.2777 -72.731,45.3987 -105.781,72.9997 -21.422,17.867 -41.833,36.739 -60.958,57.008 -22.136,23.449 -43.234,47.859 -61.421,74.492 -22.922,33.578 -43.664,68.481 -61.1879,105.258 -11.6875,24.531 -22.4531,49.422 -31.0313,75.211 -9.121,27.422 -17.8906,55.031 -22.8984,83.52 -4.4726,25.492 -9.875,50.871 -11.625,76.832 -1.4648,21.687 -1.8164,43.378 -1.6172,65.097 0.2774,30.571 30.7149,50.922 59.0977,41.52 13.9492,-4.61 23.5621,-14.821 28.8481,-28.668 2.64,-6.93 3.785,-14.18 3.746,-21.621 -0.059,-12.09 -0.403,-24.18 0.047,-36.25 0.523,-14.02 3.199,-27.782 6.035,-41.532 2.59,-12.507 4.738,-25.128 6.414,-37.796 1.609,-12.223 4.597,-24.114 8.215,-35.793 6.265,-20.231 13.046,-40.321 19.972,-60.34 2.449,-7.09 5.778,-13.899 9.008,-20.688 14.379,-30.199 28.766,-60.402 46.781,-88.672 11.207,-17.597 23.492,-34.449 37.051,-50.3 C 259.641,303.441 273.926,286.84 289,271 c 10.59,-11.129 22.285,-21.27 33.953,-31.309 16.063,-13.812 32.555,-27.132 50.266,-38.832 10.953,-7.218 21.883,-14.55 33.25,-21.07 18.062,-10.379 36.406,-20.269 54.785,-30.078 6.152,-3.27 12.687,-5.902 19.211,-8.379 18.004,-6.852 36.043,-13.602 54.164,-20.113 6.41,-2.309 13.082,-3.91 19.668,-5.699 9.465,-2.571 19.027,-4.758 28.422,-7.559 18.531,-5.512 37.355,-9.7305 56.621,-11.0196 28.289,-1.9023 56.629,-3.1523 84.957,-4.3594 6.777,-0.2929 13.613,0.7188 20.437,1.0664 11.536,0.5704 23.071,1.0821 34.602,1.6016 30.098,1.3516 59.394,7.219 88.262,15.582 11.257,3.277 22.851,5.477 33.965,9.148 12.785,4.219 25.117,9.79 37.812,14.301 46.238,16.43 88.225,40.758 128.675,68.168 20.23,13.699 38.65,29.512 56.74,45.821 19.66,17.718 38.15,36.558 55.76,56.32 25.02,28.121 46.44,58.75 64.87,91.539 3.17,5.641 6.54,11.18 9.85,16.75 9,15.09 15.51,31.34 22.44,47.422 7.51,17.379 14.39,34.988 20.03,53.039 9.2,29.41 18.41,58.871 22.68,89.519 3.14,22.563 4.06,45.332 4.77,68.082 0.4,13.129 0.59,26.368 4.85,38.95 5.92,17.5 17.27,29.988 35.74,34.429 11.9,2.871 22.93,-0.058 32.74,-7.379 12.46,-9.32 18.69,-21.941 19.43,-37.339 0.82,-16.981 1.04,-33.911 -0.83,-50.883 -1.55,-14.078 -1.69,-28.34 -3.7,-42.34 -3.09,-21.469 -6.49,-42.981 -11.15,-64.149 -3.8,-17.242 -9.93,-33.941 -14.52,-51.011 -3.92,-14.59 -9.04,-28.707 -14.88,-42.598 -4.47,-10.641 -8.18,-21.633 -13.19,-32.012 -10.4,-21.597 -19.24,-43.988 -31.77,-64.527 -17.16,-28.113 -34.73,-55.934 -55.96,-81.262 -8.08,-9.66 -15.7,-19.711 -23.84,-29.332 -6.33,-7.476 -13.05,-14.629 -19.73,-21.816 -17.4,-18.75 -35.67,-36.602 -55.85,-52.402 -16.54,-12.942 -32.59,-26.579 -49.74,-38.668 -30.21,-21.301 -62.03,-40.0239 -95.06,-56.8012 -24.6,-12.5 -50.347,-22.0117 -75.789,-32.3789 -7.261,-2.9727 -14.968,-4.9024 -22.515,-7.1211 -15.129,-4.4297 -30.227,-9 -45.461,-13 C 874.855,16.8984 865.52,15.2813 856.23,13.6211 846.074,11.7891 835.742,10.75 825.664,8.62109 807.742,4.82813 789.551,3.96875 771.406,2.62891 759.199,1.71875 746.98,0.851563 734.746,0.339844 725.332,-0.0507813 715.875,-0.0507813 706.438,0.121094 700.141,0.238281 693.863,0.980469 687.574,1.44141 687.559,1.28125 687.543,1.12109 687.527,0.96875" /><path
         id="path44"
         style="fill:#449dcf;fill-opacity:1;fill-rule:evenodd;stroke:none"
         d="m 330.715,841.078 c -66.555,0 -133.11,0.063 -199.66,-0.027 -25.918,-0.039 -51.8362,-0.379 -77.7542,-0.711 -7.207,-0.078 -14.336,0.23 -21.3867,1.832 -16.0664,3.629 -29.06254,17.316 -31.312537,33.566 -0.710938,5.141 -0.6757818,10.442 -0.484375,15.633 0.617187,16.949 17.726612,35.293 37.878912,37.051 10.0977,0.879 20.2656,1.387 30.4023,1.398 104.9146,0.086 209.8166,0.008 314.7266,0.02 52.539,0 105.082,0.086 157.621,0.105 24.344,0.012 48.688,0.149 73.027,-0.215 6.918,-0.105 14.047,-0.957 20.68,-2.871 14.387,-4.16 24.106,-13.871 28.93,-28.05 7.48,-21.95 -2.848,-41.887 -22.363,-53.321 -2.504,-1.457 -5.54,-2.148 -8.418,-2.847 -9.774,-2.36 -19.782,-2.481 -29.75,-2.469 -9.278,0.008 -18.551,0.598 -27.825,0.629 -36.254,0.097 -72.507,0.097 -108.757,0.121 -45.184,0.019 -90.372,0 -135.555,0 0,0.058 0,0.098 0,0.156" /></g></g></svg>
