<?xml version="1.0" encoding="UTF-8"?>
<svg width="300px" height="300px" version="1.0" viewBox="0 0 3e3 3e3" xmlns="http://www.w3.org/2000/svg">
 <g>
  <g transform="matrix(.76334 0 0 .76334 354.4 355.23)" fill="#0075ff">
   <path d="m5 1505c0-822 2-1495 5-1495s338 333 745 740l740 740 740-742 740-743-735 733c-404 402-737 732-740 732s325-330 729-734l734-734 14 5 13 5v2976l-13 5-14 5-364-366-364-367 740 730-368-370-367-370-371 371c-203 204-372 367-375 362s-9-6-13-4c-4 3-169-158-367-357l-359-362 730 720-365-368-365-367-367 367c-203 203-368 370-368 373s165-159 368-360l367-365-365 368c-201 202-369 367-375 367h-10z"/>
  </g>
  <g transform="matrix(.76334 0 0 .76334 354.4 355.23)" fill="#6b07fe">
   <path d="m5 1505c0-822 2-1495 5-1495s338 333 745 740l740 740 740-742 740-743-735 733c-404 402-737 732-740 732s325-330 729-734l734-734 14 5 13 5v1474l-377 377-378 377 375 375c206 206 370 377 364 379-14 5-737-717-728-727 4-4 3-7-2-7s-175 166-377 368c-202 203-370 365-373 360s-9-6-13-4c-4 3-169-158-367-357l-359-362 730 720-365-368-365-367-367 367c-203 203-368 370-368 373s165-159 368-360l367-365-365 368c-201 202-369 367-375 367h-10z"/>
  </g>
  <g transform="matrix(.76334 0 0 .76334 354.4 355.23)" fill="#ed00bc">
   <path d="m10 1493v-1488l1489 1489-736 743c-405 409-739 743-744 743h-9z"/>
  </g>
 </g>
</svg>
