<?xml version="1.0" encoding="UTF-8"?>
<svg version="1.1" viewBox="0 0 128 128" xmlns="http://www.w3.org/2000/svg">
 <path d="m31.99 25.348c-6.4935 9.3313-5.6853 21.473-0.72424 31.39l0.36301 0.70481 0.23229 0.44691 0.14485 0.25702 0.25878 0.46281c0.15368 0.27115 0.31178 0.54053 0.47341 0.81168l0.27027 0.44515c0.1793 0.28793 0.36212 0.5741 0.54937 0.85938l0.23406 0.36124c0.25878 0.38597 0.52287 0.77017 0.79579 1.1491l0.02296 0.02915 0.13425 0.18106c0.23582 0.32503 0.47871 0.64652 0.72513 0.96537l0.27292 0.34711c0.21992 0.27645 0.44338 0.55025 0.67037 0.82493l0.25614 0.3056c0.30471 0.35859 0.61649 0.71718 0.93357 1.0669l0.01855 0.01943 0.03621 0.03974c0.31001 0.33828 0.62709 0.66948 0.94947 1.0007l0.30383 0.30648c0.24907 0.25084 0.50256 0.49726 0.75781 0.74279l0.31001 0.295c0.34181 0.32149 0.68627 0.63769 1.0387 0.94505l0.0159 0.01413 0.18106 0.15368c0.31001 0.26938 0.62532 0.53435 0.94328 0.79667l0.39039 0.31178c0.25967 0.20756 0.52199 0.41335 0.78607 0.61472l0.4213 0.31884c0.29146 0.21462 0.58558 0.42572 0.88234 0.63327l0.32061 0.22787 0.08921 0.06359c0.28087 0.19431 0.56968 0.38067 0.85673 0.56703l0.37095 0.2473c0.44161 0.27822 0.88941 0.55466 1.3416 0.8214l0.37096 0.20932c0.33298 0.19166 0.66772 0.38067 1.0069 0.56438l0.55732 0.28793 0.72071 0.37449 0.16605 0.08037 0.295 0.1422c0.37714 0.18018 0.75781 0.35771 1.142 0.52905l0.24112 0.10775c0.43985 0.19254 0.88411 0.37714 1.3319 0.55467l0.32503 0.12718c0.41423 0.16075 0.83465 0.31708 1.2568 0.46546l0.1581 0.05476c0.46281 0.16251 0.93092 0.31178 1.4017 0.45928l0.33828 0.10069c0.47871 0.14485 0.953 0.3162 1.4467 0.40805 31.401 5.726 40.522-18.869 40.522-18.869-7.6611 9.9804-21.258 12.612-34.142 9.6819-0.48842-0.1104-0.96183-0.2632-1.4379-0.40275l-0.35859-0.10952c-0.46458-0.14219-0.92651-0.29146-1.3849-0.45044l-0.18989-0.06801c-0.4107-0.14485-0.8161-0.29676-1.2206-0.4531l-0.34269-0.13425c-0.4425-0.17488-0.88323-0.35771-1.3178-0.5476l-0.2632-0.11747c-0.3736-0.1687-0.74368-0.33916-1.112-0.51669l-0.3215-0.15456c-0.28881-0.14043-0.5741-0.2897-0.86026-0.4372l-0.57321-0.30118c-0.34887-0.18548-0.69068-0.37979-1.0307-0.57763l-0.34799-0.19343c-0.4531-0.26762-0.90001-0.54318-1.3425-0.82317l-0.36212-0.24112c-0.32061-0.20668-0.64034-0.41776-0.95477-0.63504l-0.30825-0.21639c-0.30383-0.21374-0.60501-0.4319-0.90266-0.65182l-0.4001-0.30295c-0.2738-0.20932-0.54583-0.42042-0.81433-0.6368l-0.36301-0.29146c-0.34269-0.28086-0.68097-0.56526-1.0148-0.85584l-0.11129-0.09274c-0.36124-0.31708-0.7163-0.64299-1.0669-0.96978l-0.3003-0.2897c-0.25967-0.24642-0.5158-0.49549-0.76664-0.75162l-0.3003-0.3003c-0.31973-0.32679-0.63327-0.658-0.94064-0.99451l-0.04681-0.05034c-0.32503-0.35506-0.64299-0.71806-0.95388-1.0855l-0.24995-0.29676c-0.23229-0.2791-0.46193-0.5635-0.68627-0.84878l-0.25172-0.31355c-0.27115-0.35064-0.53435-0.7004-0.79314-1.0555-7.1524-9.757-9.7225-23.214-4.0054-34.265m15.086-1.4361c-4.6952 6.7567-4.4409 15.804-0.77724 22.949 0.61384 1.1977 1.3045 2.3609 2.0765 3.4667 0.70305 1.0095 1.4838 2.2089 2.4174 3.0189 0.33828 0.37272 0.69245 0.73661 1.0537 1.0934l0.27733 0.27468c0.35064 0.34004 0.70746 0.67478 1.0758 0.99981l0.04416 0.03798 0.0106 0.0106c0.40805 0.35771 0.82935 0.70128 1.2568 1.0404l0.28528 0.22257c0.42925 0.32856 0.86644 0.65182 1.3151 0.96007l0.03798 0.02915 0.60059 0.3948 0.2844 0.18813c0.32061 0.20579 0.64476 0.4054 0.97508 0.59706l0.13778 0.08126c0.2844 0.1634 0.57233 0.32414 0.86114 0.48136l0.30648 0.15898 0.60236 0.31266 0.09097 0.04151c0.41423 0.20314 0.83112 0.4001 1.2577 0.58558l0.27733 0.11482c0.34092 0.14397 0.6845 0.28528 1.0307 0.41777l0.44161 0.16251c0.31443 0.11659 0.62886 0.22346 0.94682 0.32944l0.42748 0.1369c0.45133 0.13955 0.89824 0.31708 1.3681 0.39568 24.245 4.016 29.842-14.651 29.842-14.651-5.045 7.2672-14.816 10.734-25.243 8.0276-0.46281-0.12188-0.92032-0.25437-1.3734-0.39657l-0.41247-0.13337c-0.32238-0.10334-0.64299-0.21462-0.96007-0.33033l-0.43366-0.16163c-0.34799-0.13425-0.69245-0.27292-1.0343-0.41776l-0.27822-0.11748c-0.42836-0.18636-0.84966-0.38332-1.2648-0.58823l-0.63416-0.32238-0.36566-0.18813c-0.27027-0.14662-0.53877-0.29853-0.80285-0.45398l-0.19166-0.10864c-0.32856-0.19166-0.65182-0.38862-0.97155-0.59353l-0.29323-0.19519-0.62886-0.41688c-0.44691-0.30825-0.88234-0.63062-1.3107-0.9583l-0.295-0.23317c-4.5636-3.6027-8.1813-8.5275-9.901-14.111-1.8027-5.7913-1.414-12.292 1.709-17.568m13.113-0.45751c-2.768 4.0734-3.0401 9.1334-1.119 13.633 2.0252 4.7756 6.1755 8.5214 11.02 10.298l0.60236 0.20756 0.26497 0.08479c0.28528 0.09009 0.5688 0.19431 0.86379 0.24907 13.387 2.587 17.018-6.8688 17.984-8.2617-3.1805 4.5795-8.5258 5.6791-15.085 4.0867-0.51757-0.12542-1.0872-0.31266-1.5863-0.49019-0.64034-0.22876-1.271-0.48842-1.8848-0.78254-1.1641-0.55996-2.2743-1.2383-3.3041-2.0155-5.869-4.4532-9.5141-12.947-5.6844-19.866" fill="#0868ac" stroke-width=".88322"/>
 <path d="m66.084 92.362h-3.7325c-0.20668 0-0.41247 0.16605-0.45663 0.3683l-2.6497 12.259c-0.04328 0.20226-0.24907 0.36831-0.45574 0.36831h-2.6417c-2.6135 0-2.3114-1.808-1.7762-4.2845l0.0159-0.0751 0.05829-0.31267 0.0106-0.0583 0.11924-0.63592 0.12807-0.68097 0.13602-0.69333 0.60236-2.9429 0.60324-2.9429c0.04151-0.20314-0.0945-0.37007-0.30118-0.37007h-3.8305c-0.20667 0-0.41158 0.16605-0.45398 0.36919l-0.82405 3.9074-0.82317 3.9083-0.0018 5e-3 -0.07596 0.36389c-0.94858 4.3305-0.69775 8.4613 4.4585 8.5911l0.15015 3e-3h8.093c0.20668 0 0.41247-0.16605 0.45574-0.36831l1.7453-8.2043 1.7453-8.2052c0.04328-0.20314-0.09097-0.3683-0.29853-0.36919zm-39.971-0.043278h-4.0982c-0.20756 0-0.41423 0.16605-0.46016 0.36742l-0.77724 3.4304c-0.04504 0.20226 0.08656 0.36742 0.29411 0.36742h4.13c0.20756 0 0.41335-0.16605 0.45751-0.3683l0.75074-3.4287c0.04328-0.20226-0.08921-0.3683-0.29676-0.3683zm-1.1888 5.3382h-4.1308c-0.20668 0-0.41423 0.16605-0.46016 0.36742l-0.58028 2.5702-0.5794 2.5693-0.16163 0.73661-0.55732 2.6232-0.55643 2.6241c-0.04328 0.20226-0.13248 0.52905-0.19872 0.72513 0 0-0.77194 2.2964-2.0694 2.2699l-0.16251-4e-3 -1.1226-0.0203h-8.83e-4c-0.20668-3e-3 -0.41423 0.15898-0.46281 0.35947l-0.42836 1.8009-0.42748 1.8c-0.04858 0.20138 0.08214 0.36742 0.28793 0.37096 0.73573 9e-3 2.3838 0.0274 3.381 0.0274 3.2406 0 4.9496-1.7956 6.0439-6.9625l1.2816-5.93 1.2021-5.5617c0.04328-0.20049-0.09097-0.36654-0.29765-0.36654zm76.061-1.3902-0.17135-0.70746-0.16869-0.72424-0.0857-0.36566c-0.33562-1.3045-1.3204-2.0561-3.4596-2.0561l-3.3298-0.0035-3.0666-0.0044h-3.4507c-0.20668 0-0.41158 0.16605-0.45486 0.3683l-0.1528 0.72071-0.18018 0.85143-0.05034 0.23935-1.5536 7.2778-1.475 6.9086c-0.04416 0.20314-0.05829 0.45221-0.03356 0.5529 0.02473 0.10157 0.42306 0.1846 0.62974 0.1846h3.1125c0.20756 0 0.46988-0.0371 0.58293-0.083 0.11305-0.0459 0.27998-0.45309 0.32149-0.65535l0.5529-2.7371 0.55378-2.738 8.83e-4 -4e-3 0.07419-0.36477 0.67125-3.1443 0.59264-2.7769c0.04416-0.20226 0.24819-0.36742 0.45486-0.3683l9.7941-0.0044c0.20756 0.0018 0.33827-0.1634 0.29147-0.36566zm12.608-6.3946-0.75427 0.0027h-3.1346c-0.20756 0-0.47341 0.14043-0.58911 0.31178l-6.9324 10.155c-0.11658 0.17135-0.24995 0.14661-0.29588-0.0548l-0.5105-2.2372c-0.0459-0.20226-0.25349-0.36742-0.46105-0.36742h-4.4559c-0.20756 0-0.33033 0.16251-0.2738 0.36124l1.997 6.996c0.05653 0.1996 0.06094 0.5264 0.0097 0.72777l-0.86998 3.3854c-0.05211 0.20137 0.07508 0.36477 0.28263 0.36477h4.4046c0.20668 0 0.41865-0.16428 0.46988-0.36477l0.87086-3.3854c0.0512-0.20226 0.19519-0.50079 0.32061-0.66683l11.254-14.936c0.12541-0.16605 0.0574-0.30118-0.14927-0.29941zm-35.405 8.7607v-0.0035c-0.02561 0.22434-0.23317 0.3895-0.44073 0.3895h-5.65c-0.19608 0-0.295-0.13248-0.26585-0.29676l0.0053-0.01325-0.0035 0.0018 0.0026-0.01855 0.02561-0.09627c0.53965-1.4344 1.6384-2.3759 3.7042-2.3759 2.3264-8.83e-4 2.7804 1.1349 2.6223 2.413zm-1.6578-6.5217c-7.2522 0-8.9709 4.402-9.9354 8.8455-0.9636 4.5292-0.88146 8.7625 6.6242 8.7625h0.90972l0.22611-8.8e-4h0.05299l0.90089-3e-3h0.0159c1.982-8e-3 3.9701-0.023 4.7747-0.0291 0.20579-4e-3 0.40717-0.16869 0.44956-0.37095l0.30383-1.4847 0.05918-0.28882 0.36212-1.7718c0.04151-0.20226-0.09362-0.36919-0.30118-0.36919h-6.747c-2.6841 0-3.4808-0.71276-3.1867-2.8095h10.785l-8.84e-4 8.9e-4 0.0071-8.9e-4c0.17135-3e-3 0.33033-0.121 0.39304-0.27821l0.02561-0.0936-8.83e-4 8.8e-4c1.6013-6.0404 1.142-10.109-5.718-10.109zm-34.278 6.4988-0.10245 0.36124v8.83e-4l-0.81433 2.8864-0.81433 2.8855c-0.05564 0.20049-0.27203 0.363-0.47959 0.363h-4.3101c-3.2697 0-4.0664-2.5578-3.2697-6.3292 0.79579-3.8579 2.3564-6.2559 5.5749-6.4988 4.3985-0.33209 5.2782 2.761 4.2156 6.331zm2.957 6.2753s2.0323-4.9355 2.4933-7.7847c0.62974-3.8146-1.2807-9.3489-8.6591-9.3489-7.3361 0-10.523 5.2826-11.738 11.026-1.2153 5.7851 0.37714 10.857 7.6717 10.816l5.7551-0.0212 5.378-0.0194c0.20668-2e-3 0.41865-0.16605 0.47164-0.36566l0.9371-3.5735c0.05211-0.20137-0.07419-0.36565-0.28175-0.36742l-1.7965-0.01c-0.17576-8.8e-4 -0.27645-0.1157-0.25525-0.26673zm36.318-3.3042c0 0.1369-0.1104 0.24819-0.2473 0.24819-0.13602 0-0.2473-0.11129-0.2473-0.24819 0-0.13601 0.1104-0.24642 0.2473-0.24642s0.2473 0.11041 0.2473 0.24642z" fill="#131b28" stroke-width=".88322"/>
</svg>
