<?xml version="1.0" encoding="UTF-8"?>
<svg width="2500" height="2383" preserveAspectRatio="xMidYMid" version="1.1" viewBox="0 0 256 244" xmlns="http://www.w3.org/2000/svg">
 <path d="m167.18 159.78c7.4963-0.77604 13.183-7.2384 12.925-14.994-0.25789-7.7549-6.721-13.959-14.476-13.959h-0.51657c-8.0144 0.25868-14.218 6.9797-13.959 14.993 0.25868 3.8779 1.8092 7.2384 4.1358 9.5649-8.7889 17.321-22.231 29.987-42.394 40.586-13.701 7.2384-27.918 9.8236-42.135 8.0144-11.633-1.5513-20.68-6.721-26.368-15.253-8.2715-12.667-9.0468-26.368-2.0671-40.069 4.9118-9.8236 12.666-17.062 17.578-20.681-1.0339-3.3605-2.5852-9.0476-3.3605-13.183-37.483 27.143-33.605 63.852-22.231 81.172 8.5302 12.926 25.85 20.94 44.979 20.94 5.1697 0 10.339-0.51737 15.51-1.8092 33.088-6.4631 58.163-26.11 72.38-55.322zm45.496-32.055c-19.646-23.008-48.598-35.674-81.687-35.674h-4.1358c-2.3266-4.6531-7.2384-7.7557-12.667-7.7557h-0.51737c-8.0128 0.25868-14.216 6.9797-13.959 14.994 0.25868 7.7549 6.721 13.959 14.476 13.959h0.51658c5.687-0.25868 10.599-3.8779 12.667-8.7897h4.6531c19.646 0 38.258 5.6871 55.061 16.803 12.925 8.531 22.231 19.647 27.401 33.089 4.3944 10.858 4.1358 21.456-0.51737 30.505-7.2376 13.701-19.387 21.198-35.414 21.198-10.34 0-20.163-3.1026-25.333-5.4292-2.8431 2.5852-8.0136 6.721-11.633 9.307 11.116 5.1697 22.49 8.0136 33.347 8.0136 24.816 0 43.17-13.701 50.15-27.402 7.4962-14.994 6.9789-40.845-12.408-62.818zm-131.32 36.449c0.25868 7.7557 6.721 13.959 14.476 13.959h0.51737c8.0136-0.25789 14.217-6.9797 13.959-14.993-0.25789-7.7557-6.721-13.959-14.476-13.959h-0.51657c-0.51737 0-1.2934 0-1.8092 0.25789-10.599-17.579-14.993-36.708-13.442-57.389 1.0331-15.511 6.2036-28.953 15.251-40.07 7.4962-9.5649 21.972-14.218 31.796-14.476 27.401-0.51736 39.033 33.606 39.809 47.307 3.3605 0.77526 9.0476 2.5852 12.925 3.8779-3.1026-41.878-28.953-63.593-53.768-63.593-23.266 0-44.721 16.803-53.252 41.62-11.891 33.089-4.1358 64.886 10.34 89.961-1.2918 1.8092-2.0679 4.6531-1.8092 7.497z" fill="#764abc" stroke-width=".79351"/>
</svg>
